HIERARCHY
ROOT root     
{
	OFFSET 0.0000 0.0000 0.0000
	CHANNELS 6 Xposition Yposition Zposition Zrotation Yrotation Xrotation
	JOINT pelvis   
	{
		OFFSET 0.0000 0.0000 0.0000
		CHANNELS 3 Zrotation Yrotation Xrotation
		JOINT thorax   
		{
			OFFSET 0.0000 23.0750 -5.0000
			CHANNELS 3 Zrotation Yrotation Xrotation
			JOINT rclavicle
			{
				OFFSET 0.0000 28.0009 0.0000
				CHANNELS 3 Zrotation Yrotation Xrotation
				JOINT rhumerus 
				{
					OFFSET -18.5725 5.5939 0.0000
					CHANNELS 3 Zrotation Yrotation Xrotation
					JOINT rradius  
					{
						OFFSET -24.8459 0.0000 0.0000
						CHANNELS 3 Zrotation Yrotation Xrotation
						JOINT rhand    
						{
							OFFSET -24.5477 0.0000 0.0000
							CHANNELS 3 Zrotation Yrotation Xrotation
							End Site
							{
								OFFSET -8.1826 0.0000 0.0000
							}
						}
					}
				}
			}
			JOINT lclavicle
			{
				OFFSET 0.0000 28.0009 0.0000
				CHANNELS 3 Zrotation Yrotation Xrotation
				JOINT lhumerus 
				{
					OFFSET 18.5725 5.5939 0.0000
					CHANNELS 3 Zrotation Yrotation Xrotation
					JOINT lradius  
					{
						OFFSET 24.8459 0.0000 0.0000
						CHANNELS 3 Zrotation Yrotation Xrotation
						JOINT lhand    
						{
							OFFSET 24.5477 0.0000 0.0000
							CHANNELS 3 Zrotation Yrotation Xrotation
							End Site
							{
								OFFSET 8.1826 0.0000 0.0000
							}
						}
					}
				}
			}
			JOINT head     
			{
				OFFSET 0.0000 35.2030 0.0000
				CHANNELS 3 Zrotation Yrotation Xrotation
				End Site
				{
					OFFSET 0.0000 11.7343 0.0000
				}
			}
		}
		JOINT rfemur   
		{
			OFFSET -8.2817 0.0000 0.0000
			CHANNELS 3 Zrotation Yrotation Xrotation
			JOINT rtibia   
			{
				OFFSET 0.0000 -43.3627 0.0000
				CHANNELS 3 Zrotation Yrotation Xrotation
				JOINT rfoot    
				{
					OFFSET 0.0000 -38.2947 0.0000
					CHANNELS 3 Zrotation Yrotation Xrotation
					JOINT rtoes    
					{
						OFFSET 0.0000 0.0000 16.6054
						CHANNELS 3 Zrotation Yrotation Xrotation
						End Site
						{
							OFFSET 0.0000 0.0000 5.5351
						}
					}
				}
			}
		}
		JOINT lfemur   
		{
			OFFSET 8.2817 0.0000 0.0000
			CHANNELS 3 Zrotation Yrotation Xrotation
			JOINT ltibia   
			{
				OFFSET 0.0000 -43.3627 0.0000
				CHANNELS 3 Zrotation Yrotation Xrotation
				JOINT lfoot    
				{
					OFFSET 0.0000 -38.2947 0.0000
					CHANNELS 3 Zrotation Yrotation Xrotation
					JOINT ltoes    
					{
						OFFSET 0.0000 0.0000 16.6054
						CHANNELS 3 Zrotation Yrotation Xrotation
						End Site
						{
							OFFSET 0.0000 0.0000 5.5351
						}
					}
				}
			}
		}
	}
}
MOTION
Frames: 17
Frame Time: .0333333
-13.69 77.261 -3.0884 -41.7881 88.9025 -24.4424 0 -0 0 -2.76717 4.26365 18.8554 17.7384 -8.84727 1.33877e-05 55.5436 -1.8065 4.42412 -0.000483664 89.805 -0.00048382 -1.19331 5.21819 -0.0544002 -18.8422 19.0258 4.69693e-06 -58.6033 22.9608 0.310064 7.72846e-07 -65.1347 -1.20999e-06 -1.99435 6.0691 -0.105697 -0.733313 -1.0849 -16.1409 0.656957 -12.5497 -13.3179 -0 -0 53.1417 7.64608e-06 8.46338 -9.89249 -1.46438 2.0424e-05 -65.7538 -3.15074 2.24525 -58.4673 -0 -0 46.3086 9.42758e-06 7.65721 6.96693 0.934309 -7.70227e-06 -20.1604 
-12.813 77.26 -3.1209 -42.3989 88.7919 -25.0498 0 -0 0 -2.97251 4.27353 18.7626 17.6872 -8.75476 -1.58145e-05 56.1582 -1.80117 4.66303 -0 89.1885 -0 -1.23781 5.38002 -0.0582008 -18.9609 18.8937 -7.46333e-05 -58.7988 22.4885 0.466204 5.42267e-07 -64.9841 -8.51458e-07 -1.90735 6.02211 -0.100298 -0.906305 -0.884794 -15.8491 0.465027 -12.4049 -13.3127 -0 -0 54.0097 -6.58991e-06 8.70208 -8.47302 -1.29191 3.09294e-06 -67.5301 -3.01756 2.09139 -58.2839 -0 -0 47.2691 -3.55822e-06 8.07659 5.67775 0.804296 -6.08894e-06 -19.3994 
-11.944 77.272 -3.1497 -43.4643 88.6587 -26.1143 0 -0 0 -3.14272 4.26934 18.6745 17.613 -8.65687 2.17929e-05 56.7353 -1.788 4.94771 -3.72216e-06 88.3737 -3.8289e-06 -1.26083 5.54785 -0.0611019 -19.0663 18.7776 2.19844e-05 -59.0165 22.0117 0.61481 -8.49496e-07 -64.9102 5.40256e-07 -1.78921 5.94464 -0.0929004 -1.09977 -0.665189 -15.5016 0.321036 -12.2538 -13.3575 -0 -0 54.9053 -4.88025e-07 8.86352 -6.98613 -1.08659 6.38963e-07 -69.0707 -2.85662 1.9423 -58.0345 -0 -0 48.1249 1.10828e-06 8.48136 4.37559 0.651808 -1.13889e-06 -18.8161 
-11.085 77.297 -3.1757 -44.5531 88.4998 -27.2039 0 -0 0 -3.28677 4.25621 18.598 17.5259 -8.55468 4.64726e-05 57.2645 -1.77739 5.26752 -4.90638e-06 87.5738 -5.11983e-06 -1.26099 5.71788 -0.0629996 -19.1522 18.6798 -1.69932e-05 -59.2493 21.5332 0.758766 5.40552e-07 -64.9212 -8.49784e-07 -1.64167 5.83198 -0.0835987 -1.30175 -0.436595 -15.1132 0.217239 -12.1068 -13.4543 -0 -0 55.8309 1.88768e-06 8.95931 -5.41665 -0.852609 -1.67716e-06 -70.3704 -2.66985 1.798 -57.7322 -0 -0 48.8945 2.55147e-06 8.85799 3.12848 0.4873 -3.82106e-07 -18.3859 
-10.235 77.334 -3.1996 -45.4621 88.36 -28.1291 0 -0 0 -3.41327 4.23987 18.5397 17.4382 -8.45005 8.38135e-05 57.7373 -1.78046 5.60879 -0 86.7198 -0 -1.23737 5.88501 -0.0636039 -19.2131 18.6003 -3.96835e-05 -59.5006 21.0471 0.90486 0 -65.0117 0 -1.47063 5.68275 -0.0730018 -1.5011 -0.210097 -14.702 0.144437 -11.9709 -13.6001 -0 -0 56.7921 -7.52904e-06 9.00081 -3.75735 -0.594713 3.78691e-06 -71.3963 -2.46359 1.66045 -57.3889 -0 -0 49.591 7.46423e-07 9.19875 1.98675 0.321709 2.15412e-06 -18.088 
-9.3961 77.381 -3.2233 -45.9992 88.1868 -28.6827 0 -0 0 -3.53457 4.22253 18.5004 17.3592 -8.3457 1.39096e-06 58.1536 -1.80578 5.96245 -0 85.9058 -0 -1.19449 6.04774 -0.0631001 -19.2557 18.5191 6.70756e-05 -59.7545 20.5735 1.04607 0 -65.1995 0 -1.28375 5.49656 -0.0615966 -1.68868 0.00540467 -14.2821 0.090042 -11.8613 -13.8031 -0 -0 57.7922 -1.57635e-06 8.99871 -1.98394 -0.314101 -3.66979e-06 -72.1603 -2.25042 1.52959 -57.0178 -0 -0 50.2241 2.50982e-07 9.50207 0.980691 0.164097 -1.6861e-06 -17.8881 
-8.5686 77.439 -3.2482 -46.1532 87.9997 -28.8542 0 -0 0 -3.65879 4.20661 18.484 17.2946 -8.2452 2.01001e-05 58.5113 -1.86101 6.31618 -0 85.1022 -0 -1.13529 6.20203 -0.0614996 -19.2796 18.4313 3.60679e-05 -60.0029 20.1103 1.1902 0 -65.48 0 -1.09261 5.2805 -0.0504008 -1.85849 0.202393 -13.8688 0.0440081 -11.7866 -14.0642 -0 -0 58.8341 8.42471e-08 8.95623 -0.105599 -0.0166001 -2.2625e-07 -72.6288 -2.04378 1.40837 -56.6254 -0 -0 50.8043 -8.6483e-08 9.76887 0.118298 0.0203999 6.17534e-08 -17.7661 
-7.7536 77.507 -3.2746 -45.9538 87.8497 -28.6844 0 -0 0 -3.78884 4.19323 18.4941 17.2514 -8.15206 5.57954e-05 58.8103 -1.95126 6.65821 -0 84.3407 -0 -1.06059 6.34323 -0.0587991 -19.2803 18.3407 -2.19426e-05 -60.24 19.6461 1.35063 8.01818e-07 -65.8446 -1.23837e-06 -0.908095 5.04407 -0.039999 -2.00919 0.375409 -13.4734 0.00299014 -11.7504 -14.3836 -0 -0 59.9116 2.26177e-06 8.86264 1.85341 0.289 -1.52911e-06 -72.7325 -1.85521 1.30195 -56.2192 -0 -0 51.3349 2.2362e-07 10.0019 -0.612694 -0.108099 5.78962e-07 -17.6977 
-6.9518 77.585 -3.3037 -45.439 87.7155 -28.2037 0 -0 0 -3.92787 4.17954 18.5285 17.2311 -8.06998 2.6273e-06 59.0567 -2.0778 6.98339 -1.80837e-06 83.6142 -2.02214e-06 -0.974303 6.46937 -0.0551 -19.2646 18.239 -1.0352e-05 -60.4542 19.183 1.53189 0 -66.291 0 -0.741605 4.79878 -0.0311002 -2.1423 0.523808 -13.1043 -0.0388237 -11.7631 -14.7614 -0 -0 61.0245 -1.21247e-06 8.70082 3.86526 0.591103 -9.48818e-08 -72.4369 -1.69681 1.21326 -55.8001 -0 -0 51.8145 -2.90836e-06 10.207 -1.23793 -0.222899 -2.95646e-08 -17.6665 
-6.1636 77.671 -3.3355 -44.7096 87.6058 -27.512 0 -0 0 -4.07428 4.16128 18.5874 17.2326 -8.0025 8.70795e-06 59.253 -2.23827 7.28812 -1.62228e-06 82.9249 -1.83612e-06 -0.878902 6.57901 -0.0505005 -19.2355 18.1241 4.76263e-06 -60.6345 18.7261 1.736 -9.05313e-07 -66.8206 5.97175e-07 -0.602595 4.55766 -0.0239999 -2.26262 0.649998 -12.7636 -0.0808928 -11.8283 -15.2006 -0 -0 62.168 5.33973e-06 8.44079 5.87957 0.870891 -6.18932e-06 -71.6981 -1.57621 1.14551 -55.3676 -0 -0 52.241 -5.67505e-06 10.3895 -1.79151 -0.328399 -2.21695e-06 -17.6594 
-5.3893 77.767 -3.3701 -43.8252 87.5019 -26.6639 0 -0 0 -4.22324 4.13276 18.666 17.2527 -7.95233 -6.47833e-05 59.4084 -2.42869 7.57141 -2.08741e-06 82.2712 -2.38994e-06 -0.776007 6.67087 -0.0452005 -19.1989 17.9949 -8.75029e-05 -60.7741 18.2738 1.96632 8.73069e-07 -67.4296 -1.30838e-06 -0.498588 4.33337 -0.0188997 -2.37706 0.759312 -12.4511 -0.120786 -11.9459 -15.699 -0 -0 63.3392 -3.48368e-06 8.04429 7.83312 1.10349 -3.44393e-06 -70.483 -1.49719 1.10086 -54.9207 -0 -0 52.6091 -9.04717e-06 10.5542 -2.30933 -0.4301 -1.11476e-06 -17.669 
-4.6287 77.87 -3.4069 -42.9331 87.3969 -25.8016 0 -0 0 -4.36847 4.08644 18.7613 17.2863 -7.92152 -3.47645e-05 59.5269 -2.64124 7.8351 -0 81.6387 -0 -0.666499 6.74473 -0.0392997 -19.158 17.8537 0.000135877 -60.8698 17.8281 2.22245 6.41354e-07 -68.1171 -9.48787e-07 -0.433905 4.13705 -0.0157 -2.49358 0.85911 -12.1637 -0.152362 -12.1187 -16.2601 -0 -0 64.5337 3.54803e-07 7.46981 9.65383 1.25961 -2.48503e-06 -68.7804 -1.4592 1.0806 -54.455 -0 -0 52.9135 1.95875e-06 10.7041 -2.82305 -0.533406 -1.31574e-07 -17.6925 
-3.8816 77.981 -3.4453 -42.0687 87.3436 -24.9739 0 -0 0 -4.50167 4.01511 18.8691 17.3255 -7.90977 -3.08572e-05 59.6159 -2.86963 8.0813 -2.51306e-06 81.0191 -2.94129e-06 -0.5503 6.80081 -0.0326998 -19.1175 17.7021 0.00014962 -60.919 17.395 2.49915 -9.7699e-07 -68.8786 6.69937e-07 -0.409696 3.97732 -0.0142 -2.61959 0.957151 -11.8955 -0.168873 -12.3435 -16.8813 -0 -0 65.7492 -3.30802e-06 6.67797 11.2675 1.3105 5.17381e-07 -66.613 -1.45792 1.08434 -53.967 -0 -0 53.152 4.25418e-06 10.8401 -3.35619 -0.642296 3.89155e-06 -17.7284 
-3.1476 78.097 -3.4844 -41.3382 87.2889 -24.2736 0 -0 0 -4.61612 3.91141 18.9854 17.3663 -7.91785 -2.06352e-05 59.6807 -3.10396 8.31425 -1.16892e-06 80.4054 -1.38311e-06 -0.427897 6.83973 -0.0255997 -19.0793 17.547 4.56666e-05 -60.9217 16.9726 2.79463 7.03712e-07 -69.7138 -1.01036e-06 -0.423698 3.8589 -0.0142998 -2.76015 1.06208 -11.6401 -0.16296 -12.6173 -17.5644 -0 -0 66.9803 3.2158e-05 5.6402 12.6046 1.23448 3.76158e-06 -64.0389 -1.4863 1.11016 -53.4559 -0 -0 53.3209 -6.9728e-06 10.9615 -3.92071 -0.758692 -3.38389e-07 -17.7771 
-2.4262 78.217 -3.5233 -40.8518 87.2539 -23.8152 0 -0 0 -4.70503 3.7698 19.1061 17.405 -7.94672 -2.98584e-05 59.7255 -3.33401 8.53884 -1.30509e-06 79.7776 -1.09079e-06 -0.299499 6.86235 -0.018 -19.0413 17.3979 -7.43572e-06 -60.8812 16.5574 3.10739 0 -70.6134 0 -0.470292 3.78506 -0.0154994 -2.91837 1.17964 -11.3958 -0.127196 -12.9315 -18.3093 -0 -0 68.2225 -2.62659e-05 4.34461 13.6024 1.02371 4.21365e-06 -61.1406 -1.53451 1.15569 -52.9194 -0 -0 53.4227 3.10819e-06 11.0647 -4.51773 -0.882505 2.55195e-06 -17.8365 
-1.7173 78.342 -3.5617 -40.5975 87.2221 -23.5826 0 -0 0 -4.76594 3.58666 19.2275 17.4343 -7.98821 5.20177e-05 59.7544 -3.56055 8.75245 -0 79.133 -0 -0.167104 6.87169 -0.0100003 -19.0055 17.2478 -8.89752e-05 -60.8052 16.1666 3.41797 1.11798e-06 -71.5861 -1.55046e-06 -0.543403 3.74867 -0.0178001 -3.09304 1.31534 -11.1566 -0.058363 -13.2799 -19.1183 -0 -0 69.4694 -3.16767e-07 2.80321 14.2226 0.689198 -8.39727e-07 -58.0202 -1.59483 1.21794 -52.3624 -0 -0 53.4591 1.29177e-07 11.1469 -5.13728 -1.0108 4.27977e-06 -17.9039 
-1.0207 78.469 -3.5986 -40.6094 87.1789 -23.6059 0 -0 0 -4.79727 3.36118 19.3443 17.4559 -8.03944 -1.72354e-05 59.7696 -3.77988 8.95508 -0 78.4618 -0 -0.0330008 6.86938 -0.00200006 -18.9702 17.0964 -0.000102245 -60.6998 15.8047 3.71682 0 -72.6302 0 -0.634207 3.74328 -0.0207002 -3.27997 1.47115 -10.9229 0.0471104 -13.6496 -19.9929 -0 -0 70.7125 3.99103e-06 1.05379 14.4362 0.262705 7.16873e-06 -54.7631 -1.65759 1.29314 -51.7886 -0 -0 53.438 1.98284e-06 11.2048 -5.76196 -1.13929 7.51961e-06 -17.9724 
